<svg width="186" height="30" viewBox="0 0 186 30" fill="none" xmlns="http://www.w3.org/2000/svg">
<path d="M64.4236 8.83366H67.571V11.8203H67.6471C69.17 9.51051 71.3529 8.35986 74.2126 8.35986C75.4732 8.35986 76.6069 8.62214 77.6307 9.1467C78.6544 9.67126 79.3735 10.5596 79.7966 11.8203C80.4819 10.7204 81.3787 9.86584 82.4871 9.26513C83.6039 8.66443 84.8307 8.35986 86.1674 8.35986C87.1912 8.35986 88.1134 8.46984 88.9425 8.68981C89.7717 8.90979 90.4739 9.25669 91.0662 9.73048C91.6584 10.2043 92.1153 10.8134 92.4452 11.558C92.7752 12.3025 92.936 13.1993 92.936 14.2485V29.1561H89.594V15.8221C89.594 15.196 89.5432 14.6038 89.4332 14.0539C89.3232 13.5039 89.1287 13.0217 88.841 12.6156C88.5533 12.2095 88.1557 11.8879 87.6396 11.651C87.1319 11.4141 86.4636 11.2957 85.6513 11.2957C84.0015 11.2957 82.6986 11.7695 81.7595 12.7086C80.8203 13.6478 80.3465 14.9084 80.3465 16.4821V29.1476H77.0046V15.8137C77.0046 15.1538 76.9453 14.553 76.8269 14.0031C76.7084 13.4532 76.5054 12.9709 76.2177 12.5648C75.9301 12.1587 75.5409 11.8456 75.0586 11.6172C74.5764 11.3888 73.9503 11.2872 73.1888 11.2788C72.2158 11.2788 71.3867 11.4734 70.6929 11.871C69.9992 12.2687 69.4323 12.734 69.0008 13.2839C68.5693 13.8339 68.2563 14.4008 68.0532 14.993C67.8502 15.5852 67.7571 16.076 67.7571 16.4651V29.1307H64.4151V8.79981L64.4236 8.83366Z" fill="#202626"/>
<path d="M101.507 5.1783H98.1647V1.0918H101.507V5.1783ZM98.1647 8.8333H101.507V29.1642H98.1647V8.8333Z" fill="#202626"/>
<path d="M108.749 22.7513C108.774 23.4873 108.944 24.1049 109.257 24.621C109.57 25.1287 109.984 25.5348 110.492 25.8394C110.999 26.144 111.583 26.3555 112.218 26.4909C112.861 26.6178 113.521 26.6854 114.206 26.6854C114.731 26.6854 115.281 26.6432 115.856 26.567C116.431 26.4909 116.964 26.347 117.446 26.1355C117.929 25.924 118.335 25.6194 118.648 25.2133C118.961 24.8072 119.122 24.2911 119.122 23.6565C119.122 22.7936 118.792 22.1336 118.14 21.6937C117.489 21.2453 116.668 20.8899 115.678 20.6107C114.697 20.3315 113.631 20.0861 112.472 19.8662C111.312 19.6462 110.246 19.3332 109.265 18.9186C108.284 18.5125 107.463 17.9456 106.811 17.2095C106.16 16.4735 105.83 15.4497 105.83 14.1383C105.83 13.1146 106.058 12.2347 106.515 11.5071C106.972 10.771 107.564 10.1787 108.284 9.72187C109.003 9.265 109.815 8.91812 110.72 8.69814C111.626 8.47816 112.522 8.36816 113.411 8.36816C114.561 8.36816 115.627 8.4697 116.592 8.66429C117.556 8.85889 118.419 9.1973 119.164 9.68802C119.908 10.1787 120.509 10.8302 120.958 11.6509C121.406 12.48 121.668 13.5038 121.744 14.739H118.402C118.352 14.0876 118.183 13.5376 117.895 13.1061C117.607 12.6746 117.243 12.3277 116.795 12.0655C116.347 11.8032 115.856 11.6086 115.323 11.4986C114.781 11.3802 114.24 11.3209 113.69 11.3209C113.191 11.3209 112.683 11.3632 112.175 11.4394C111.668 11.5155 111.202 11.6593 110.779 11.8539C110.356 12.0485 110.018 12.3108 109.756 12.6408C109.493 12.9708 109.367 13.3938 109.367 13.9183C109.367 14.4937 109.57 14.9759 109.976 15.3567C110.382 15.7374 110.898 16.0504 111.532 16.3042C112.159 16.5496 112.869 16.7611 113.656 16.9303C114.443 17.0995 115.23 17.2772 116.017 17.4634C116.854 17.6495 117.675 17.8695 118.47 18.1317C119.274 18.394 119.976 18.7409 120.594 19.1724C121.211 19.6039 121.711 20.1454 122.091 20.8053C122.472 21.4568 122.658 22.269 122.658 23.242C122.658 24.4772 122.404 25.501 121.888 26.3132C121.381 27.1254 120.712 27.7769 119.883 28.276C119.054 28.7752 118.123 29.1221 117.091 29.3167C116.059 29.5113 115.027 29.6128 114.003 29.6128C112.878 29.6128 111.803 29.4944 110.779 29.2575C109.756 29.0206 108.85 28.6314 108.064 28.0984C107.277 27.5654 106.651 26.8547 106.177 25.9748C105.703 25.0948 105.441 24.0288 105.39 22.7682H108.732L108.749 22.7513Z" fill="#202626"/>
<path d="M131.009 8.83288H135.061V11.7856H131.009V24.4089C131.009 24.7981 131.043 25.1196 131.11 25.3565C131.178 25.5934 131.296 25.7795 131.483 25.9065C131.669 26.0334 131.923 26.118 132.253 26.1603C132.582 26.2026 133.006 26.2195 133.53 26.2195H135.061V29.1722H132.506C131.643 29.1722 130.899 29.113 130.281 28.9946C129.664 28.8761 129.164 28.6562 128.784 28.3431C128.403 28.0301 128.124 27.5816 127.938 27.0063C127.751 26.431 127.658 25.6696 127.658 24.722V11.7856H124.198V8.83288H127.658V2.74121H131V8.83288H131.009Z" fill="#202626"/>
<path d="M160.283 29.0626C158.794 27.6497 157.618 25.9829 156.755 24.0793H145.189V16.8031H155.029C154.986 16.2109 154.969 15.6017 154.969 14.9756C154.969 13.9011 155.029 12.8689 155.139 11.879H145.189V5.87199H156.712C157.558 3.99373 158.709 2.36929 160.164 1.00712V0.863281H139.402V29.1641H160.384L160.283 29.0626Z" fill="#202626"/>
<path d="M160.553 24.0791C160.638 24.2314 160.731 24.3752 160.833 24.519V24.0791H160.553Z" fill="#202626"/>
<path d="M181.18 3.29964C179.048 1.09988 175.952 0 171.908 0C167.863 0 164.767 1.09988 162.635 3.29964C160.367 5.34712 158.997 8.2068 158.523 11.8787C158.387 12.8517 158.328 13.8839 158.328 14.9753C158.328 15.6014 158.354 16.2106 158.396 16.8028C158.607 19.6541 159.327 22.0738 160.553 24.079H160.833V24.5189C161.349 25.2973 161.958 26.008 162.635 26.651C164.767 28.8508 167.863 29.9507 171.908 29.9507C175.952 29.9507 179.048 28.8508 181.18 26.651C184.04 23.9521 185.461 20.0602 185.461 14.9753C185.461 9.89047 184.04 5.89706 181.18 3.29964ZM177.483 22.3446C176.112 24.079 174.251 24.9419 171.908 24.9419C169.564 24.9419 167.694 24.079 166.298 22.3446C164.902 20.6186 164.208 18.165 164.208 14.9753C164.208 11.7857 164.902 9.33207 166.298 7.59764C167.694 5.87167 169.564 5.00868 171.908 5.00868C174.251 5.00868 176.112 5.88014 177.483 7.61458C178.862 9.34901 179.547 11.8026 179.547 14.9753C179.547 18.1481 178.862 20.6186 177.483 22.3446Z" fill="#202626"/>
<path d="M19.9395 0.771973L0 29.5852L19.869 13.1705L33.0605 29.5852L39.8088 22.954L53 29.772L39.8321 13.0072L33.0605 18.8446L19.9395 0.771973Z" fill="#26A9E1"/>
</svg>
